{"asset":{"version":"2.0","generator":"Blockbench 5.1.3 glTF exporter"},"scenes":[{"nodes":[4],"name":"blockbench_export"}],"scene":0,"nodes":[{"translation":[0,-0.125,0],"name":"head_mesh","mesh":0},{"translation":[0,-0.1875,0],"name":"upper_leg_l_mesh","mesh":1},{"translation":[0,-0.1875,0],"name":"upper_leg_r_mesh","mesh":2},{"translation":[0,-0.125,0],"name":"body_mesh","mesh":3},{"name":"humanoid_mannequin","children":[0,1,2,3]}],"bufferViews":[{"buffer":0,"byteOffset":0,"byteLength":19008,"target":34962,"byteStride":12},{"buffer":0,"byteOffset":19008,"byteLength":19008,"target":34962,"byteStride":12},{"buffer":0,"byteOffset":38016,"byteLength":12672,"target":34962,"byteStride":8},{"buffer":0,"byteOffset":50688,"byteLength":3168,"target":34963},{"buffer":0,"byteOffset":53856,"byteLength":432,"target":34962,"byteStride":12},{"buffer":0,"byteOffset":54288,"byteLength":432,"target":34962,"byteStride":12},{"buffer":0,"byteOffset":54720,"byteLength":288,"target":34962,"byteStride":8},{"buffer":0,"byteOffset":55008,"byteLength":72,"target":34963},{"buffer":0,"byteOffset":55080,"byteLength":432,"target":34962,"byteStride":12},{"buffer":0,"byteOffset":55512,"byteLength":432,"target":34962,"byteStride":12},{"buffer":0,"byteOffset":55944,"byteLength":288,"target":34962,"byteStride":8},{"buffer":0,"byteOffset":56232,"byteLength":72,"target":34963},{"buffer":0,"byteOffset":56304,"byteLength":432,"target":34962,"byteStride":12},{"buffer":0,"byteOffset":56736,"byteLength":432,"target":34962,"byteStride":12},{"buffer":0,"byteOffset":57168,"byteLength":288,"target":34962,"byteStride":8},{"buffer":0,"byteOffset":57456,"byteLength":72,"target":34963}],"buffers":[{"byteLength":57528,"uri":"data:application/octet-stream;base64,"}],"accessors":[{"bufferView":0,"componentType":5126,"count":1584,"max":[0.23999999463558197,1.8600000143051147,0.23999999463558197],"min":[-0.23999999463558197,1.3799999952316284,-0.23999999463558197],"type":"VEC3"},{"bufferView":1,"componentType":5126,"count":1584,"max":[0.9831069707870483,0.9912979006767273,0.9831069707870483],"min":[-0.9831069707870483,-0.9912992119789124,-0.9831069707870483],"type":"VEC3"},{"bufferView":2,"componentType":5126,"count":1584,"max":[0.00004999999873689376,0.000050008296966552734],"min":[0,0],"type":"VEC2"},{"bufferView":3,"componentType":5123,"count":1584,"max":[1583],"min":[0],"type":"SCALAR"},{"bufferView":4,"componentType":5126,"count":36,"max":[-0.019999999552965164,0.9225000143051147,0.10999999940395355],"min":[-0.2199999988079071,0.20250000059604645,-0.10999999940395355],"type":"VEC3"},{"bufferView":5,"componentType":5126,"count":36,"max":[1,1,1],"min":[-1,-1,-1],"type":"VEC3"},{"bufferView":6,"componentType":5126,"count":36,"max":[0.00004999999873689376,0.000050008296966552734],"min":[0,0],"type":"VEC2"},{"bufferView":7,"componentType":5123,"count":36,"max":[35],"min":[0],"type":"SCALAR"},{"bufferView":8,"componentType":5126,"count":36,"max":[0.2199999988079071,0.9225000143051147,0.10999999940395355],"min":[0.019999999552965164,0.20250000059604645,-0.10999999940395355],"type":"VEC3"},{"bufferView":9,"componentType":5126,"count":36,"max":[1,1,1],"min":[-1,-1,-1],"type":"VEC3"},{"bufferView":10,"componentType":5126,"count":36,"max":[0.00004999999873689376,0.000050008296966552734],"min":[0,0],"type":"VEC2"},{"bufferView":11,"componentType":5123,"count":36,"max":[35],"min":[0],"type":"SCALAR"},{"bufferView":12,"componentType":5126,"count":36,"max":[0.26499998569488525,1.3700000047683716,0.14000000059604645],"min":[-0.26499998569488525,0.6700000166893005,-0.14000000059604645],"type":"VEC3"},{"bufferView":13,"componentType":5126,"count":36,"max":[1,1,1],"min":[-1,-1,-1],"type":"VEC3"},{"bufferView":14,"componentType":5126,"count":36,"max":[0.00004999999873689376,0.000050008296966552734],"min":[0,0],"type":"VEC2"},{"bufferView":15,"componentType":5123,"count":36,"max":[35],"min":[0],"type":"SCALAR"}],"materials":[{"pbrMetallicRoughness":{"metallicFactor":0,"roughnessFactor":1},"alphaMode":"MASK","alphaCutoff":0.05,"doubleSided":true}],"meshes":[{"primitives":[{"mode":4,"attributes":{"POSITION":0,"NORMAL":1,"TEXCOORD_0":2},"indices":3,"material":0}]},{"primitives":[{"mode":4,"attributes":{"POSITION":4,"NORMAL":5,"TEXCOORD_0":6},"indices":7,"material":0}]},{"primitives":[{"mode":4,"attributes":{"POSITION":8,"NORMAL":9,"TEXCOORD_0":10},"indices":11,"material":0}]},{"primitives":[{"mode":4,"attributes":{"POSITION":12,"NORMAL":13,"TEXCOORD_0":14},"indices":15,"material":0}]}]}