{
  "accessors": [
    {
      "bufferView": 0,
      "componentType": 5126,
      "count": 12,
      "max": [
        0.5,
        1.2000000476837158,
        0.5
      ],
      "min": [
        -0.5,
        -1.2000000476837158,
        -0.5
      ],
      "type": "VEC3"
    },
    {
      "bufferView": 1,
      "componentType": 5126,
      "count": 12,
      "type": "VEC3"
    },
    {
      "bufferView": 2,
      "componentType": 5126,
      "count": 12,
      "type": "VEC2"
    },
    {
      "bufferView": 3,
      "componentType": 5125,
      "count": 18,
      "type": "SCALAR"
    }
  ],
  "asset": {
    "generator": "cdc bake_world_tile_placeholders",
    "version": "2.0"
  },
  "bufferViews": [
    {
      "buffer": 0,
      "byteLength": 144,
      "byteOffset": 0,
      "target": 34962
    },
    {
      "buffer": 0,
      "byteLength": 144,
      "byteOffset": 144,
      "target": 34962
    },
    {
      "buffer": 0,
      "byteLength": 96,
      "byteOffset": 288,
      "target": 34962
    },
    {
      "buffer": 0,
      "byteLength": 72,
      "byteOffset": 384,
      "target": 34963
    }
  ],
  "buffers": [
    {
      "byteLength": 456,
      "uri": "t_junction.bin"
    }
  ],
  "meshes": [
    {
      "primitives": [
        {
          "attributes": {
            "NORMAL": 1,
            "POSITION": 0,
            "TEXCOORD_0": 2
          },
          "indices": 3
        }
      ]
    }
  ],
  "nodes": [
    {
      "mesh": 0
    }
  ],
  "scene": 0,
  "scenes": [
    {
      "nodes": [
        0
      ]
    }
  ]
}