{
  "accessors": [
    {
      "bufferView": 0,
      "componentType": 5126,
      "count": 168,
      "max": [
        1.1699999570846558,
        0.42000001668930054,
        0.14000000059604645
      ],
      "min": [
        -1.1699999570846558,
        0.0,
        -0.14000000059604645
      ],
      "type": "VEC3"
    },
    {
      "bufferView": 1,
      "componentType": 5126,
      "count": 168,
      "type": "VEC3"
    },
    {
      "bufferView": 2,
      "componentType": 5126,
      "count": 168,
      "type": "VEC2"
    },
    {
      "bufferView": 3,
      "componentType": 5125,
      "count": 252,
      "type": "SCALAR"
    }
  ],
  "asset": {
    "generator": "cdc bake_world_tile_placeholders",
    "version": "2.0"
  },
  "bufferViews": [
    {
      "buffer": 0,
      "byteLength": 2016,
      "byteOffset": 0,
      "target": 34962
    },
    {
      "buffer": 0,
      "byteLength": 2016,
      "byteOffset": 2016,
      "target": 34962
    },
    {
      "buffer": 0,
      "byteLength": 1344,
      "byteOffset": 4032,
      "target": 34962
    },
    {
      "buffer": 0,
      "byteLength": 1008,
      "byteOffset": 5376,
      "target": 34963
    }
  ],
  "buffers": [
    {
      "byteLength": 6384,
      "uri": "sandbag_barrier.bin"
    }
  ],
  "meshes": [
    {
      "primitives": [
        {
          "attributes": {
            "NORMAL": 1,
            "POSITION": 0,
            "TEXCOORD_0": 2
          },
          "indices": 3
        }
      ]
    }
  ],
  "nodes": [
    {
      "mesh": 0
    }
  ],
  "scene": 0,
  "scenes": [
    {
      "nodes": [
        0
      ]
    }
  ]
}