{
  "accessors": [
    {
      "bufferView": 0,
      "componentType": 5126,
      "count": 72,
      "max": [
        0.5494917631149292,
        1.899999976158142,
        0.10999999940395355
      ],
      "min": [
        -0.5494917631149292,
        0.0,
        -0.10999999940395355
      ],
      "type": "VEC3"
    },
    {
      "bufferView": 1,
      "componentType": 5126,
      "count": 72,
      "type": "VEC3"
    },
    {
      "bufferView": 2,
      "componentType": 5126,
      "count": 72,
      "type": "VEC2"
    },
    {
      "bufferView": 3,
      "componentType": 5125,
      "count": 108,
      "type": "SCALAR"
    }
  ],
  "asset": {
    "generator": "cdc bake_world_tile_placeholders",
    "version": "2.0"
  },
  "bufferViews": [
    {
      "buffer": 0,
      "byteLength": 864,
      "byteOffset": 0,
      "target": 34962
    },
    {
      "buffer": 0,
      "byteLength": 864,
      "byteOffset": 864,
      "target": 34962
    },
    {
      "buffer": 0,
      "byteLength": 576,
      "byteOffset": 1728,
      "target": 34962
    },
    {
      "buffer": 0,
      "byteLength": 432,
      "byteOffset": 2304,
      "target": 34963
    }
  ],
  "buffers": [
    {
      "byteLength": 2736,
      "uri": "tree_dead.bin"
    }
  ],
  "meshes": [
    {
      "primitives": [
        {
          "attributes": {
            "NORMAL": 1,
            "POSITION": 0,
            "TEXCOORD_0": 2
          },
          "indices": 3
        }
      ]
    }
  ],
  "nodes": [
    {
      "mesh": 0
    }
  ],
  "scene": 0,
  "scenes": [
    {
      "nodes": [
        0
      ]
    }
  ]
}