{
  "asset": {
    "version": "2.0",
    "generator": "codex-placeholder-generator"
  },
  "scene": 0,
  "scenes": [
    {
      "nodes": [
        0
      ]
    }
  ],
  "nodes": [
    {
      "mesh": 0,
      "name": "weapon_light"
    }
  ],
  "meshes": [
    {
      "name": "weapon_light",
      "primitives": [
        {
          "attributes": {
            "POSITION": 0,
            "NORMAL": 1
          },
          "indices": 2,
          "mode": 4
        }
      ]
    }
  ],
  "buffers": [
    {
      "byteLength": 2592,
      "uri": "data:application/octet-stream;base64,"
    }
  ],
  "bufferViews": [
    {
      "buffer": 0,
      "byteOffset": 0,
      "byteLength": 1152,
      "target": 34962
    },
    {
      "buffer": 0,
      "byteOffset": 1152,
      "byteLength": 1152,
      "target": 34962
    },
    {
      "buffer": 0,
      "byteOffset": 2304,
      "byteLength": 288,
      "target": 34963
    }
  ],
  "accessors": [
    {
      "bufferView": 0,
      "componentType": 5126,
      "count": 96,
      "type": "VEC3",
      "min": [
        -0.13,
        -0.17,
        -0.06
      ],
      "max": [
        0.13,
        0.25,
        0.03
      ]
    },
    {
      "bufferView": 1,
      "componentType": 5126,
      "count": 96,
      "type": "VEC3"
    },
    {
      "bufferView": 2,
      "componentType": 5123,
      "count": 144,
      "type": "SCALAR"
    }
  ]
}