{
  "asset": {
    "version": "2.0",
    "generator": "codex-humanoid-mannequin-generator"
  },
  "scene": 0,
  "scenes": [
    {
      "nodes": [
        21
      ]
    }
  ],
  "nodes": [
    {
      "name": "body_mesh",
      "scale": [
        0.78,
        0.7,
        0.28
      ],
      "mesh": 0
    },
    {
      "name": "head_mesh",
      "scale": [
        0.48,
        0.48,
        0.48
      ],
      "mesh": 1
    },
    {
      "name": "upper_leg_l_mesh",
      "scale": [
        0.2,
        0.72,
        0.22
      ],
      "mesh": 0
    },
    {
      "name": "upper_leg_r_mesh",
      "scale": [
        0.2,
        0.72,
        0.22
      ],
      "mesh": 0
    },
    {
      "name": "foot_l_mesh",
      "translation": [
        0.0,
        0.0,
        0.03
      ],
      "scale": [
        0.42,
        0.1,
        0.28
      ],
      "mesh": 0
    },
    {
      "name": "foot_r_mesh",
      "translation": [
        0.0,
        0.0,
        0.03
      ],
      "scale": [
        0.42,
        0.1,
        0.28
      ],
      "mesh": 0
    },
    {
      "name": "body_socket",
      "translation": [
        0.0,
        0.0,
        0.02
      ]
    },
    {
      "name": "hands_socket",
      "translation": [
        0.0,
        0.0,
        0.04
      ]
    },
    {
      "name": "head_socket",
      "translation": [
        0.0,
        0.24,
        0.02
      ]
    },
    {
      "name": "head",
      "translation": [
        0.0,
        0.6,
        0.0
      ],
      "children": [
        1,
        8
      ]
    },
    {
      "name": "hand_l",
      "translation": [
        -0.62,
        -0.04,
        0.02
      ]
    },
    {
      "name": "hand_r",
      "translation": [
        0.62,
        -0.04,
        0.02
      ]
    },
    {
      "name": "back_socket",
      "translation": [
        0.0,
        0.02,
        -0.2
      ],
      "rotation": [
        0.104528,
        0.0,
        0.0,
        0.994522
      ]
    },
    {
      "name": "accessory_socket",
      "translation": [
        0.24,
        0.12,
        0.14
      ]
    },
    {
      "name": "body",
      "translation": [
        0.0,
        1.02,
        0.0
      ],
      "children": [
        0,
        9,
        6,
        7,
        10,
        11,
        12,
        13
      ]
    },
    {
      "name": "upper_leg_l",
      "translation": [
        -0.12,
        0.5,
        0.0
      ],
      "children": [
        2
      ]
    },
    {
      "name": "upper_leg_r",
      "translation": [
        0.12,
        0.5,
        0.0
      ],
      "children": [
        3
      ]
    },
    {
      "name": "foot_l",
      "translation": [
        -0.12,
        0.08,
        0.0
      ],
      "children": [
        4
      ]
    },
    {
      "name": "foot_r",
      "translation": [
        0.12,
        0.08,
        0.0
      ],
      "children": [
        5
      ]
    },
    {
      "name": "legs_socket",
      "translation": [
        0.0,
        0.5,
        0.02
      ]
    },
    {
      "name": "feet_socket",
      "translation": [
        0.0,
        0.08,
        0.08
      ]
    },
    {
      "name": "humanoid_root",
      "children": [
        14,
        15,
        16,
        17,
        18,
        19,
        20
      ]
    }
  ],
  "materials": [
    {
      "name": "mannequin_default",
      "pbrMetallicRoughness": {
        "baseColorFactor": [
          0.82,
          0.84,
          0.88,
          1.0
        ],
        "metallicFactor": 0.02,
        "roughnessFactor": 0.9
      }
    }
  ],
  "meshes": [
    {
      "name": "unit_cube",
      "primitives": [
        {
          "attributes": {
            "POSITION": 0,
            "NORMAL": 1
          },
          "indices": 2,
          "material": 0,
          "mode": 4
        }
      ]
    },
    {
      "name": "unit_sphere",
      "primitives": [
        {
          "attributes": {
            "POSITION": 3,
            "NORMAL": 4
          },
          "indices": 5,
          "material": 0,
          "mode": 4
        }
      ]
    }
  ],
  "buffers": [
    {
      "byteLength": 11616,
      "uri": "data:application/octet-stream;base64,"
    }
  ],
  "bufferViews": [
    {
      "buffer": 0,
      "byteOffset": 0,
      "byteLength": 288,
      "target": 34962
    },
    {
      "buffer": 0,
      "byteOffset": 288,
      "byteLength": 288,
      "target": 34962
    },
    {
      "buffer": 0,
      "byteOffset": 576,
      "byteLength": 72,
      "target": 34963
    },
    {
      "buffer": 0,
      "byteOffset": 648,
      "byteLength": 3900,
      "target": 34962
    },
    {
      "buffer": 0,
      "byteOffset": 4548,
      "byteLength": 3900,
      "target": 34962
    },
    {
      "buffer": 0,
      "byteOffset": 8448,
      "byteLength": 3168,
      "target": 34963
    }
  ],
  "accessors": [
    {
      "bufferView": 0,
      "componentType": 5126,
      "count": 24,
      "type": "VEC3",
      "min": [
        -0.5,
        -0.5,
        -0.5
      ],
      "max": [
        0.5,
        0.5,
        0.5
      ]
    },
    {
      "bufferView": 1,
      "componentType": 5126,
      "count": 24,
      "type": "VEC3",
      "min": [
        -1.0,
        -1.0,
        -1.0
      ],
      "max": [
        1.0,
        1.0,
        1.0
      ]
    },
    {
      "bufferView": 2,
      "componentType": 5123,
      "count": 36,
      "type": "SCALAR"
    },
    {
      "bufferView": 3,
      "componentType": 5126,
      "count": 325,
      "type": "VEC3",
      "min": [
        -0.5,
        -0.5,
        -0.5
      ],
      "max": [
        0.5,
        0.5,
        0.5
      ]
    },
    {
      "bufferView": 4,
      "componentType": 5126,
      "count": 325,
      "type": "VEC3",
      "min": [
        -1.0,
        -1.0,
        -1.0
      ],
      "max": [
        1.0,
        1.0,
        1.0
      ]
    },
    {
      "bufferView": 5,
      "componentType": 5123,
      "count": 1584,
      "type": "SCALAR"
    }
  ]
}
