{
  "asset": {
    "version": "2.0",
    "generator": "Codex container placeholder"
  },
  "scene": 0,
  "scenes": [
    {
      "nodes": [
        0,
        1,
        2,
        3,
        4
      ]
    }
  ],
  "nodes": [
    {
      "mesh": 0,
      "scale": [
        0.92,
        1.24,
        0.34
      ]
    },
    {
      "mesh": 2,
      "translation": [
        0.0,
        0.1,
        0.0
      ],
      "scale": [
        0.03,
        1.04,
        0.3
      ]
    },
    {
      "mesh": 1,
      "translation": [
        0.0,
        0.72,
        0.19
      ],
      "scale": [
        0.32,
        0.08,
        0.03
      ]
    },
    {
      "mesh": 1,
      "translation": [
        0.0,
        0.6,
        0.19
      ],
      "scale": [
        0.08,
        0.32,
        0.03
      ]
    },
    {
      "mesh": 2,
      "translation": [
        0.22,
        0.78,
        0.18
      ],
      "scale": [
        0.06,
        0.12,
        0.03
      ]
    }
  ],
  "meshes": [
    {
      "primitives": [
        {
          "attributes": {
            "POSITION": 0,
            "NORMAL": 1
          },
          "indices": 2,
          "material": 0
        }
      ]
    },
    {
      "primitives": [
        {
          "attributes": {
            "POSITION": 0,
            "NORMAL": 1
          },
          "indices": 2,
          "material": 1
        }
      ]
    },
    {
      "primitives": [
        {
          "attributes": {
            "POSITION": 0,
            "NORMAL": 1
          },
          "indices": 2,
          "material": 2
        }
      ]
    }
  ],
  "materials": [
    {
      "pbrMetallicRoughness": {
        "baseColorFactor": [
          0.86,
          0.9,
          0.89,
          1.0
        ],
        "metallicFactor": 0.18,
        "roughnessFactor": 0.42
      }
    },
    {
      "pbrMetallicRoughness": {
        "baseColorFactor": [
          0.78,
          0.12,
          0.14,
          1.0
        ],
        "metallicFactor": 0.0,
        "roughnessFactor": 0.72
      }
    },
    {
      "pbrMetallicRoughness": {
        "baseColorFactor": [
          0.62,
          0.67,
          0.68,
          1.0
        ],
        "metallicFactor": 0.22,
        "roughnessFactor": 0.35
      }
    }
  ],
  "buffers": [
    {
      "byteLength": 648,
      "uri": "data:application/octet-stream;base64,"
    }
  ],
  "bufferViews": [
    {
      "buffer": 0,
      "byteOffset": 0,
      "byteLength": 288,
      "target": 34962
    },
    {
      "buffer": 0,
      "byteOffset": 288,
      "byteLength": 288,
      "target": 34962
    },
    {
      "buffer": 0,
      "byteOffset": 576,
      "byteLength": 72,
      "target": 34963
    }
  ],
  "accessors": [
    {
      "bufferView": 0,
      "componentType": 5126,
      "count": 24,
      "type": "VEC3",
      "min": [
        -0.5,
        0.0,
        -0.5
      ],
      "max": [
        0.5,
        1.0,
        0.5
      ]
    },
    {
      "bufferView": 1,
      "componentType": 5126,
      "count": 24,
      "type": "VEC3"
    },
    {
      "bufferView": 2,
      "componentType": 5123,
      "count": 36,
      "type": "SCALAR",
      "min": [
        0
      ],
      "max": [
        23
      ]
    }
  ]
}
