{
  "asset": {
    "version": "2.0",
    "generator": "Codex container placeholder"
  },
  "scene": 0,
  "scenes": [
    {
      "nodes": [
        0,
        1,
        2,
        3
      ]
    }
  ],
  "nodes": [
    {
      "mesh": 0,
      "scale": [
        0.84,
        0.56,
        0.84
      ]
    },
    {
      "mesh": 1,
      "translation": [
        0.0,
        0.56,
        0.0
      ],
      "scale": [
        0.9,
        0.06,
        0.9
      ]
    },
    {
      "mesh": 1,
      "translation": [
        0.0,
        0.16,
        0.0
      ],
      "scale": [
        0.78,
        0.06,
        0.08
      ]
    },
    {
      "mesh": 1,
      "translation": [
        0.0,
        0.36,
        0.0
      ],
      "scale": [
        0.78,
        0.06,
        0.08
      ]
    }
  ],
  "meshes": [
    {
      "primitives": [
        {
          "attributes": {
            "POSITION": 0,
            "NORMAL": 1
          },
          "indices": 2,
          "material": 0
        }
      ]
    },
    {
      "primitives": [
        {
          "attributes": {
            "POSITION": 0,
            "NORMAL": 1
          },
          "indices": 2,
          "material": 1
        }
      ]
    }
  ],
  "materials": [
    {
      "pbrMetallicRoughness": {
        "baseColorFactor": [
          0.55,
          0.38,
          0.23,
          1.0
        ],
        "metallicFactor": 0.0,
        "roughnessFactor": 0.95
      }
    },
    {
      "pbrMetallicRoughness": {
        "baseColorFactor": [
          0.31,
          0.2,
          0.11,
          1.0
        ],
        "metallicFactor": 0.0,
        "roughnessFactor": 1.0
      }
    }
  ],
  "buffers": [
    {
      "byteLength": 648,
      "uri": "data:application/octet-stream;base64,"
    }
  ],
  "bufferViews": [
    {
      "buffer": 0,
      "byteOffset": 0,
      "byteLength": 288,
      "target": 34962
    },
    {
      "buffer": 0,
      "byteOffset": 288,
      "byteLength": 288,
      "target": 34962
    },
    {
      "buffer": 0,
      "byteOffset": 576,
      "byteLength": 72,
      "target": 34963
    }
  ],
  "accessors": [
    {
      "bufferView": 0,
      "componentType": 5126,
      "count": 24,
      "type": "VEC3",
      "min": [
        -0.5,
        0.0,
        -0.5
      ],
      "max": [
        0.5,
        1.0,
        0.5
      ]
    },
    {
      "bufferView": 1,
      "componentType": 5126,
      "count": 24,
      "type": "VEC3"
    },
    {
      "bufferView": 2,
      "componentType": 5123,
      "count": 36,
      "type": "SCALAR",
      "min": [
        0
      ],
      "max": [
        23
      ]
    }
  ]
}
