{
  "asset": {
    "version": "2.0",
    "generator": "Codex container placeholder"
  },
  "scene": 0,
  "scenes": [
    {
      "nodes": [
        0,
        1,
        2,
        3
      ]
    }
  ],
  "nodes": [
    {
      "mesh": 0,
      "scale": [
        0.66,
        1.62,
        0.54
      ]
    },
    {
      "mesh": 1,
      "translation": [
        0.0,
        0.12,
        0.0
      ],
      "scale": [
        0.03,
        1.38,
        0.5
      ]
    },
    {
      "mesh": 2,
      "translation": [
        0.19,
        0.82,
        0.25
      ],
      "scale": [
        0.08,
        0.16,
        0.04
      ]
    },
    {
      "mesh": 1,
      "translation": [
        0.0,
        1.62,
        0.0
      ],
      "scale": [
        0.7,
        0.05,
        0.58
      ]
    }
  ],
  "meshes": [
    {
      "primitives": [
        {
          "attributes": {
            "POSITION": 0,
            "NORMAL": 1
          },
          "indices": 2,
          "material": 0
        }
      ]
    },
    {
      "primitives": [
        {
          "attributes": {
            "POSITION": 0,
            "NORMAL": 1
          },
          "indices": 2,
          "material": 1
        }
      ]
    },
    {
      "primitives": [
        {
          "attributes": {
            "POSITION": 0,
            "NORMAL": 1
          },
          "indices": 2,
          "material": 2
        }
      ]
    }
  ],
  "materials": [
    {
      "pbrMetallicRoughness": {
        "baseColorFactor": [
          0.49,
          0.57,
          0.62,
          1.0
        ],
        "metallicFactor": 0.82,
        "roughnessFactor": 0.36
      }
    },
    {
      "pbrMetallicRoughness": {
        "baseColorFactor": [
          0.25,
          0.3,
          0.35,
          1.0
        ],
        "metallicFactor": 0.88,
        "roughnessFactor": 0.28
      }
    },
    {
      "pbrMetallicRoughness": {
        "baseColorFactor": [
          0.72,
          0.76,
          0.78,
          1.0
        ],
        "metallicFactor": 0.75,
        "roughnessFactor": 0.22
      }
    }
  ],
  "buffers": [
    {
      "byteLength": 648,
      "uri": "data:application/octet-stream;base64,"
    }
  ],
  "bufferViews": [
    {
      "buffer": 0,
      "byteOffset": 0,
      "byteLength": 288,
      "target": 34962
    },
    {
      "buffer": 0,
      "byteOffset": 288,
      "byteLength": 288,
      "target": 34962
    },
    {
      "buffer": 0,
      "byteOffset": 576,
      "byteLength": 72,
      "target": 34963
    }
  ],
  "accessors": [
    {
      "bufferView": 0,
      "componentType": 5126,
      "count": 24,
      "type": "VEC3",
      "min": [
        -0.5,
        0.0,
        -0.5
      ],
      "max": [
        0.5,
        1.0,
        0.5
      ]
    },
    {
      "bufferView": 1,
      "componentType": 5126,
      "count": 24,
      "type": "VEC3"
    },
    {
      "bufferView": 2,
      "componentType": 5123,
      "count": 36,
      "type": "SCALAR",
      "min": [
        0
      ],
      "max": [
        23
      ]
    }
  ]
}
